<svg width="20.421875" height="20.416687" viewBox="0 0 20.4219 20.4167" fill="none" xmlns="http://www.w3.org/2000/svg" xmlns:xlink="http://www.w3.org/1999/xlink">
	<desc>
			Created with Pixso.
	</desc>
	<defs/>
	<path d="M14.3381 0L6.0838 0C2.72919 0 0 2.72845 0 6.08221L0 14.3344C0 17.6882 2.72919 20.4167 6.0838 20.4167L14.3381 20.4167C17.6927 20.4167 20.4219 17.6882 20.4219 14.3344L20.4219 6.08221C20.4218 2.72845 17.6927 0 14.3381 0ZM18.3674 14.3344C18.3674 16.5592 16.5634 18.3627 14.3381 18.3627L6.0838 18.3627C3.85846 18.3627 2.05444 16.5592 2.05444 14.3344L2.05444 6.08221C2.05444 3.85742 3.85846 2.05389 6.0838 2.05389L14.3381 2.05389C16.5634 2.05389 18.3674 3.85742 18.3674 6.08221L18.3674 14.3344Z" fill="#FFFFFF" fill-opacity="1.000000" fill-rule="nonzero"/>
	<path d="M10.211 4.92786C7.29865 4.92786 4.9292 7.29669 4.9292 10.2083C4.9292 13.1199 7.29865 15.4888 10.211 15.4888C13.1234 15.4888 15.4929 13.1199 15.4929 10.2083C15.4929 7.29663 13.1234 4.92786 10.211 4.92786ZM10.211 13.4349C8.42859 13.4349 6.98364 11.9904 6.98364 10.2083C6.98364 8.42633 8.42859 6.98175 10.211 6.98175C11.9935 6.98175 13.4384 8.42633 13.4384 10.2083C13.4384 11.9903 11.9934 13.4349 10.211 13.4349Z" fill="#FFFFFF" fill-opacity="1.000000" fill-rule="nonzero"/>
	<path d="M16.7685 4.96759C16.7685 5.66638 16.2018 6.23285 15.5029 6.23285C14.804 6.23285 14.2373 5.66638 14.2373 4.96759C14.2373 4.2688 15.5029 3.70233 15.5029 3.70233C15.5029 3.70233 16.7685 4.2688 16.7685 4.96759Z" fill="#FFFFFF" fill-opacity="1.000000" fill-rule="evenodd"/>
</svg>
