<svg width="20.421875" height="20.416687" viewBox="0 0 20.4219 20.4167" fill="none" xmlns="http://www.w3.org/2000/svg" xmlns:xlink="http://www.w3.org/1999/xlink">
	<desc>
			Created with Pixso.
	</desc>
	<defs/>
	<path id="Vector" d="M17.6699 0L2.75189 0C1.23212 0 0 1.23175 0 2.75116L0 17.6654C0 19.1848 1.23206 20.4166 2.75189 20.4166L10.1094 20.4166L10.1219 13.1208L8.22601 13.1208C7.97961 13.1208 7.7796 12.9216 7.77869 12.6753L7.76959 10.3235C7.76862 10.0759 7.96924 9.87463 8.21698 9.87463L10.1094 9.87463L10.1094 7.60223C10.1094 4.96515 11.7204 3.5293 14.0735 3.5293L16.0043 3.5293C16.2513 3.5293 16.4517 3.72949 16.4517 3.9765L16.4517 5.95953C16.4517 6.20642 16.2515 6.40662 16.0046 6.40674L14.8196 6.40729C13.54 6.40729 13.2922 7.01526 13.2922 7.90741L13.2922 9.87463L16.1041 9.87463C16.3719 9.87463 16.5798 10.1085 16.5483 10.3746L16.2695 12.7263C16.2428 12.9514 16.0519 13.1209 15.8253 13.1209L13.3047 13.1209L13.2922 20.4167L17.67 20.4167C19.1898 20.4167 20.4219 19.1849 20.4219 17.6655L20.4219 2.75116C20.4218 1.23175 19.1898 0 17.6699 0Z" fill="#FFFFFF" fill-opacity="1.000000" fill-rule="nonzero"/>
</svg>
